<?xml version="1.0" encoding="iso-8859-1"?>
<!-- Generator: Adobe Illustrator 19.0.0, SVG Export Plug-In . SVG Version: 6.00 Build 0)  -->
<svg version="1.1" id="Capa_1" xmlns="http://www.w3.org/2000/svg" xmlns:xlink="http://www.w3.org/1999/xlink" x="0px" y="0px"
	 viewBox="0 0 375.053 375.053" style="enable-background:new 0 0 375.053 375.053;" xml:space="preserve">
<g>
	<g>
		<g>
			<path d="M169.6,361.453h-24.4c-3.6,0-6.8,2.8-6.8,6.8c0,3.6,2.8,6.8,6.8,6.8h24.4c3.6,0,6.8-2.8,6.8-6.8
				C176.4,364.653,173.6,361.453,169.6,361.453z"/>
			<path d="M307.2,40.653c-3.6-13.2-12-25.2-24.8-32.8c-0.4-0.4-0.8-0.8-1.2-0.8c-12.8-7.2-27.6-8.8-40.8-5.2s-25.2,12-32.8,24.8
				c-0.4,0.4-0.8,0.8-0.8,1.2l-128,222c-0.4,0.4-0.4,0.8-0.4,1.2l-8,75.2l-4.4,41.2c0,0.4,0,0.4,0,0.8c0,3.6,2.8,6.8,6.8,6.8
				l52.4-2.4c3.6,0,6.8-2.8,6.8-6.8c0-3.6-2.8-6.8-6.8-6.8l-29.2,0.4l16-11.6l0.4-0.4l60.8-44.4l0.4-0.4v-0.4l128-220.4
				c0.4,0,0.4-0.4,0.4-0.4C309.2,68.653,310.8,53.853,307.2,40.653z M198.4,69.453l29.2,16.8L124,265.453l-29.2-16.8L198.4,69.453z
				 M81.6,353.453l2-20c0.4,0,1.2,0,1.2,0c2.4,0.4,4.4,1.2,6.4,2.4s3.6,2.8,5.2,4.4c0.4,0.4,0.8,0.8,1.2,1.2L81.6,353.453z
				 M108.4,333.053c-0.4-0.8-1.2-1.2-1.6-2c-2.4-2.8-5.2-5.2-8.8-7.2c-3.6-2-7.2-3.2-10.8-4c-0.8-0.4-1.6-0.4-2.4-0.4l6-56.8
				l64,36.8L108.4,333.053z M165.2,289.453l-29.2-16.8l103.6-179.6l29.2,16.8L165.2,289.453z M275.6,97.853l-70-40.4l10.8-19.2
				l70,40.8L275.6,97.853z M292.8,66.653l-69.2-40c5.6-6.4,12.8-10.8,20.4-12.8c10-2.8,20.8-1.6,30.4,3.6c0.4,0,0.8,0.4,1.2,0.4
				c9.6,5.6,15.6,14.4,18.4,24.4C296,50.253,295.6,58.653,292.8,66.653z"/>
			<path d="M206,361.453h-14.8c-3.6,0-6.8,2.8-6.8,6.8c0,3.6,2.8,6.8,6.8,6.8H206c3.6,0,6.8-2.8,6.8-6.8
				C212.8,364.653,210,361.453,206,361.453z"/>
		</g>
	</g>
</g>
<g>
</g>
<g>
</g>
<g>
</g>
<g>
</g>
<g>
</g>
<g>
</g>
<g>
</g>
<g>
</g>
<g>
</g>
<g>
</g>
<g>
</g>
<g>
</g>
<g>
</g>
<g>
</g>
<g>
</g>
</svg>
