<?xml version="1.0" encoding="iso-8859-1"?>
<!-- Generator: Adobe Illustrator 19.0.0, SVG Export Plug-In . SVG Version: 6.00 Build 0)  -->
<svg xmlns="http://www.w3.org/2000/svg" xmlns:xlink="http://www.w3.org/1999/xlink" version="1.1" id="Capa_1" x="0px" y="0px" viewBox="0 0 539.077 539.077" style="enable-background:new 0 0 539.077 539.077;" xml:space="preserve" width="512px" height="512px">
<g>
	<g>
		<path d="M370.615,539.077c-6.208,0-11.231-5.023-11.231-11.231v-146h-89.846v146c0,6.208-5.023,11.231-11.231,11.231    c-6.208,0-11.231-5.023-11.231-11.231v-146h-89.846v146c0,6.208-5.023,11.231-11.231,11.231s-11.231-5.023-11.231-11.231v-146    H11.231C5.023,381.846,0,376.823,0,370.615s5.023-11.231,11.231-11.231h123.538v-89.846H11.231C5.023,269.538,0,264.515,0,258.308    c0-6.208,5.023-11.231,11.231-11.231h123.538v-89.846H11.231C5.023,157.231,0,152.208,0,146s5.023-11.231,11.231-11.231h123.538    V11.231C134.769,5.023,139.792,0,146,0s11.231,5.023,11.231,11.231v123.538h89.846V11.231C247.077,5.023,252.1,0,258.308,0    c6.208,0,11.231,5.023,11.231,11.231v123.538h89.846V11.231C359.385,5.023,364.408,0,370.615,0s11.231,5.023,11.231,11.231    v123.538h146c6.208,0,11.231,5.023,11.231,11.231s-5.023,11.231-11.231,11.231h-146v89.846h146    c6.208,0,11.231,5.023,11.231,11.231c0,6.208-5.023,11.231-11.231,11.231h-146v89.846h146c6.208,0,11.231,5.023,11.231,11.231    s-5.023,11.231-11.231,11.231h-146v146C381.846,534.054,376.823,539.077,370.615,539.077z M269.538,359.385h89.846v-89.846    h-89.846V359.385z M157.231,359.385h89.846v-89.846h-89.846V359.385z M269.538,247.077h89.846v-89.846h-89.846V247.077z     M157.231,247.077h89.846v-89.846h-89.846V247.077z" fill="#212121"/>
	</g>
</g>
<g>
</g>
<g>
</g>
<g>
</g>
<g>
</g>
<g>
</g>
<g>
</g>
<g>
</g>
<g>
</g>
<g>
</g>
<g>
</g>
<g>
</g>
<g>
</g>
<g>
</g>
<g>
</g>
<g>
</g>
</svg>
